<mxfile host="app.diagrams.net" modified="2023-05-09T03:04:50.626Z" agent="Mozilla/5.0 (Macintosh; Intel Mac OS X 10_15_7) AppleWebKit/537.36 (KHTML, like Gecko) Chrome/112.0.0.0 Safari/537.36" etag="JCflyTKw5A9TcQCYT2Wn" version="21.2.9" type="github">
  <diagram name="第 1 页" id="FVnFhV_5SOv8a1bbU3vU">
    <mxGraphModel dx="1314" dy="783" grid="1" gridSize="10" guides="1" tooltips="1" connect="1" arrows="1" fold="1" page="1" pageScale="1" pageWidth="827" pageHeight="1169" math="0" shadow="0">
      <root>
        <mxCell id="0" />
        <mxCell id="1" parent="0" />
        <mxCell id="ullLt-j2P3kfC0aGwx_m-1" value="Start Create Incident" style="rounded=0;whiteSpace=wrap;html=1;" vertex="1" parent="1">
          <mxGeometry x="160" y="150" width="120" height="40" as="geometry" />
        </mxCell>
      </root>
    </mxGraphModel>
  </diagram>
</mxfile>
